<?xml version="1.0" encoding="UTF-8"?>
<svg version="1.1" xmlns="http://www.w3.org/2000/svg" width="980" height="808">
<path d="M0 0 C1.903759 0.00090637 1.903759 0.00090637 3.84597778 0.00183105 C22.05457368 0.02538476 40.06740552 0.2708013 58.1875 2.1875 C59.48913086 2.31640625 60.79076172 2.4453125 62.13183594 2.578125 C140.2172397 10.35091524 214.93981738 34.61416152 282.1875 75.1875 C282.96383789 75.65575195 283.74017578 76.12400391 284.54003906 76.60644531 C312.73047976 93.70975301 338.8881747 113.92829796 363.1875 136.1875 C363.96939697 136.90172119 363.96939697 136.90172119 364.76708984 137.63037109 C372.90588109 145.06986416 380.9241549 152.47147215 388.12109375 160.84375 C390.16770322 163.16504618 392.2758726 165.4204287 394.39770508 167.67285156 C400.09071431 173.73504436 405.34474827 180.00883669 410.41015625 186.6015625 C412.27399985 189.02713958 414.17619372 191.41236863 416.12109375 193.7734375 C423.83120172 203.15331445 430.64424803 212.9633661 437.1875 223.1875 C437.56358398 223.77241211 437.93966797 224.35732422 438.32714844 224.95996094 C453.27881687 248.33510455 465.01126418 273.02585508 474.1875 299.1875 C474.47608887 299.99864258 474.76467773 300.80978516 475.06201172 301.64550781 C485.10136413 330.18223072 490.28233795 361.35255124 490.390625 391.5859375 C490.39632507 392.85555328 490.40202515 394.12516907 490.40789795 395.43325806 C490.41730469 398.11765086 490.42422165 400.80193324 490.42773438 403.48632812 C490.4341896 407.48844831 490.46834018 411.49018793 490.5 415.4921875 C490.59551552 438.49474031 489.08037567 461.36996193 484.4375 483.9375 C484.05235229 485.8558667 484.05235229 485.8558667 483.65942383 487.81298828 C468.02706999 564.25322654 426.41652047 630.29558066 371.6887207 684.81665039 C369.98726222 686.51269726 368.29128737 688.21409821 366.59570312 689.91601562 C360.96416019 695.55171078 355.30333939 701.07203311 349.1875 706.1875 C348.54530518 706.73108154 347.90311035 707.27466309 347.24145508 707.8347168 C295.79687823 751.15613378 236.1007281 782.96332985 172.00714111 803.19915771 C170.61534026 803.64032826 169.22567627 804.08831447 167.83856201 804.54400635 C156.76014149 808.15894084 144.31005323 810.85517098 133 806.5625 C127.49304734 803.57301141 124.20524636 799.20572009 121.80622864 793.40322304 C120.46702097 788.60739964 120.77680041 783.59461158 120.80273438 778.65307617 C120.79467522 776.77833618 120.79467522 776.77833618 120.78645325 774.86572266 C120.77668352 772.15589568 120.77223023 769.44667904 120.77680969 766.73689842 C120.78366082 762.4340581 120.76767589 758.13148128 120.74841309 753.82868958 C120.71062232 744.67747391 120.69779495 735.52628166 120.6875 726.375 C120.67639078 716.52983707 120.66065201 706.68479761 120.61678743 696.83971769 C120.60159383 693.27220232 120.59245126 689.70489796 120.59819031 686.13735008 C120.64492577 655.27621015 118.06423474 627.96818265 96.1875 604.1875 C94.05356576 602.18472119 91.88937074 600.2779132 89.62109375 598.4296875 C89.14800781 598.01976562 88.67492187 597.60984375 88.1875 597.1875 C88.1875 596.8575 88.1875 596.5275 88.1875 596.1875 C89.75540283 595.99957886 89.75540283 595.99957886 91.35498047 595.80786133 C150.41695621 588.68374036 215.53763038 576.9325117 260.1875 534.1875 C261.28964844 533.18009766 261.28964844 533.18009766 262.4140625 532.15234375 C290.83435918 505.28863576 309.52052496 460.6720632 311.29536438 421.82670593 C311.35081842 419.34633284 311.37826784 416.86768152 311.390625 414.38671875 C311.39632507 413.47026077 311.40202515 412.5538028 311.40789795 411.60957336 C311.41729191 409.67584363 311.42385945 407.74209828 311.42773438 405.80834961 C311.43734767 402.92075757 311.46838678 400.03390722 311.5 397.14648438 C311.59077457 381.33267505 310.41987108 365.42219338 305.625 350.25 C305.25036621 349.042229 305.25036621 349.042229 304.86816406 347.81005859 C299.81032862 332.28639444 292.44521957 317.88844986 282.1875 305.1875 C281.73729492 304.62595215 281.28708984 304.0644043 280.82324219 303.48583984 C275.50503652 296.90609766 270.03067991 290.80078985 263.671875 285.1875 C262.1875 283.1875 262.1875 283.1875 262.26953125 280.98046875 C262.57246094 280.05878906 262.87539063 279.13710938 263.1875 278.1875 C263.4980835 277.23544678 263.4980835 277.23544678 263.81494141 276.26416016 C264.56422814 274.00192022 265.34423427 271.75155388 266.125 269.5 C268.28287802 263.11619788 270.3393062 256.89789401 271.1875 250.1875 C271.32027344 249.20652344 271.45304688 248.22554687 271.58984375 247.21484375 C273.88517702 225.16417022 268.66344125 203.44153549 260.75 183 C260.39091553 182.03650635 260.03183105 181.0730127 259.66186523 180.08032227 C258.6548784 177.61144279 257.68408563 175.39408406 256.1875 173.1875 C253.30507938 171.89284215 253.30507938 171.89284215 250.1875 172.1875 C249.25292969 172.12046875 248.31835938 172.0534375 247.35546875 171.984375 C210.67055344 171.40741696 172.25645994 189.47747241 140.78125 206.65625 C139.22966187 207.49579224 139.22966187 207.49579224 137.64672852 208.35229492 C135.68593097 209.42148961 133.73508276 210.50921548 131.79663086 211.6184082 C126.17812631 214.69194911 122.49472545 215.78262373 116.1875 214.1875 C114.00750522 213.7592277 111.82638486 213.33666819 109.64453125 212.91796875 C107.76093255 212.53757902 105.87733858 212.15716532 103.99389648 211.77600098 C33.30268176 197.55899104 -42.44744479 196.36517927 -112.78735352 213.75146484 C-121.48560882 215.83692923 -126.34009268 214.20089102 -133.875 209.75 C-167.84162221 190.39874801 -214.73799152 167.19125801 -254.94091797 172.46679688 C-256.92824014 173.02929672 -256.92824014 173.02929672 -257.92163086 174.80371094 C-258.20401611 175.50270508 -258.48640137 176.20169922 -258.77734375 176.921875 C-259.10017334 177.71376221 -259.42300293 178.50564941 -259.75561523 179.3215332 C-260.08376221 180.18480225 -260.41190918 181.04807129 -260.75 181.9375 C-261.26832397 183.26624146 -261.26832397 183.26624146 -261.79711914 184.62182617 C-272.55899025 213.21220407 -275.7960043 246.3468405 -263.70654297 274.96362305 C-262.23981086 278.50723687 -261.43592168 280.56831652 -262.8125 284.1875 C-264.12841797 285.78051758 -264.12841797 285.78051758 -265.8046875 287.33203125 C-266.42190674 287.91831299 -267.03912598 288.50459473 -267.67504883 289.10864258 C-268.33915771 289.73279053 -269.0032666 290.35693848 -269.6875 291 C-294.04388009 314.70895763 -310.51482579 348.79412123 -311.00230408 383.14772034 C-311.00669998 383.84276169 -311.01109589 384.53780304 -311.015625 385.25390625 C-311.02263931 386.00167831 -311.02965363 386.74945038 -311.03688049 387.5198822 C-311.05432477 389.92998327 -311.06073626 392.33983804 -311.0625 394.75 C-311.06317474 395.5759668 -311.06384949 396.40193359 -311.06454468 397.25292969 C-311.00350294 444.37030714 -296.85723777 491.95783734 -265.8125 528.1875 C-265.22597656 528.91839844 -264.63945312 529.64929688 -264.03515625 530.40234375 C-248.41948999 549.18736299 -224.70978685 560.9223494 -202.3125 569.5625 C-201.60895386 569.83619415 -200.90540771 570.10988831 -200.18054199 570.39187622 C-163.73627821 584.53592538 -127.70434871 592.46889048 -88.8125 596.1875 C-89.59262451 596.96673828 -90.37274902 597.74597656 -91.17651367 598.54882812 C-104.92921419 612.31553991 -115.31488536 627.78339584 -117.75 647.375 C-118.4375 650.5390625 -118.4375 650.5390625 -119.8125 653.1875 C-124.49094024 656.13751649 -129.46847189 657.12070509 -134.8125 658.1875 C-136.53151702 658.56519298 -138.25025822 658.94414309 -139.96875 659.32421875 C-150.16431817 661.50623725 -160.23321877 663.31122084 -170.6875 663.42578125 C-171.41509521 663.433853 -172.14269043 663.44192474 -172.89233398 663.45024109 C-174.42510677 663.46397631 -175.95790879 663.47474491 -177.49072266 663.48266602 C-179.02434568 663.49411578 -180.5579311 663.51445501 -182.09130859 663.54418945 C-196.02378195 663.81310392 -209.50431691 662.25319788 -222 655.5625 C-222.65524658 655.22114014 -223.31049316 654.87978027 -223.9855957 654.52807617 C-239.45755345 646.18173222 -251.95285171 633.61601518 -262.375 619.625 C-277.74131875 599.02720347 -300.84395088 581.65606091 -326.8125 577.1875 C-330.97708638 576.97013782 -335.14277342 577.0023827 -339.3125 577 C-340.44042969 576.98775391 -341.56835938 576.97550781 -342.73046875 576.96289062 C-343.81972656 576.96095703 -344.90898437 576.95902344 -346.03125 576.95703125 C-347.02060547 576.95292236 -348.00996094 576.94881348 -349.02929688 576.94458008 C-352.23988104 577.22480212 -355.4552955 577.8302955 -357.8125 580.1875 C-357.8125 583.47896569 -357.692396 586.08901348 -355.5703125 588.73828125 C-349.72814533 593.92355402 -342.74154595 598.06255413 -335.89453125 601.765625 C-313.03495395 614.20703299 -297.78036746 636.38817499 -286.80859375 659.35546875 C-276.21797269 681.44625528 -258.9847219 695.94393957 -235.97412109 704.27319336 C-208.18399031 713.62374702 -177.39890819 714.43797732 -148.4375 712.3125 C-147.34381104 712.23410889 -146.25012207 712.15571777 -145.12329102 712.07495117 C-139.31515135 711.61409992 -133.72319988 710.90319405 -128.04443359 709.58544922 C-125.59415156 709.14856892 -123.29681455 709.16132363 -120.8125 709.1875 C-120.61200443 719.62742187 -120.42831965 730.06749258 -120.26591206 740.50808048 C-120.18996991 745.35640696 -120.10830605 750.20449443 -120.01342773 755.05249023 C-119.92202607 759.73371449 -119.84583514 764.41496489 -119.78005028 769.09661674 C-119.75234354 770.88001124 -119.71921698 772.66333028 -119.68050575 774.44651985 C-119.62709395 776.9501186 -119.59320741 779.45329594 -119.5637207 781.95727539 C-119.54358414 782.68951828 -119.52344757 783.42176117 -119.50270081 784.17619324 C-119.46192459 790.74547158 -121.30664714 794.99325725 -125 800.375 C-130.66409088 806.03909088 -137.34495079 808.27856358 -145.25 808.625 C-155.23748743 808.4927154 -164.39088112 805.2620421 -173.8125 802.1875 C-175.0200293 801.79594727 -176.22755859 801.40439453 -177.47167969 801.00097656 C-249.45949086 777.52423449 -317.56070934 739.61109046 -370.8125 685.1875 C-373.68415038 682.30060192 -376.57657447 679.43631555 -379.484375 676.5859375 C-386.24648243 669.93117822 -392.83056923 663.33252976 -398.6953125 655.86328125 C-400.61340423 653.43912473 -402.60401716 651.09822444 -404.6328125 648.76660156 C-422.40099401 628.24435192 -437.19611943 605.18052998 -449.8125 581.1875 C-450.2569043 580.34783691 -450.70130859 579.50817383 -451.15917969 578.64306641 C-458.40522553 564.85833889 -464.51010209 550.82734126 -469.8125 536.1875 C-470.13202637 535.30739258 -470.45155273 534.42728516 -470.78076172 533.52050781 C-477.45423366 514.89897451 -482.13852132 495.91089856 -485.5625 476.4375 C-485.86051514 474.75430664 -485.86051514 474.75430664 -486.16455078 473.03710938 C-489.20467163 454.91621766 -490.16241875 437.02241483 -490.12817383 418.66333008 C-490.12502555 415.15348854 -490.14853582 411.6445032 -490.17382812 408.13476562 C-490.23431424 386.80050279 -488.34175941 365.67898597 -484.125 344.75 C-483.87008789 343.46907471 -483.61517578 342.18814941 -483.35253906 340.8684082 C-472.96045315 289.82755931 -450.65408656 242.03105603 -419.8125 200.1875 C-419.34585938 199.548125 -418.87921875 198.90875 -418.3984375 198.25 C-411.28595106 188.51312017 -403.80977607 179.21094985 -395.8125 170.1875 C-395.03132813 169.30578125 -394.25015625 168.4240625 -393.4453125 167.515625 C-391.24796269 165.06022343 -389.03279112 162.62216406 -386.8125 160.1875 C-385.96171875 159.24390625 -385.1109375 158.3003125 -384.234375 157.328125 C-375.87217515 148.08386837 -367.29927067 138.97944115 -357.796875 130.890625 C-354.69737871 128.2304274 -351.70387489 125.45362294 -348.6953125 122.69140625 C-344.5081883 119.05462222 -340.16103526 115.62846904 -335.8125 112.1875 C-335.05130859 111.58156006 -334.29011719 110.97562012 -333.50585938 110.35131836 C-311.99884857 93.3202553 -288.96464393 78.20125415 -264.8125 65.1875 C-263.89307617 64.6920166 -262.97365234 64.1965332 -262.02636719 63.68603516 C-255.33174712 60.10019946 -248.5910711 56.61177555 -241.8125 53.1875 C-240.95221191 52.75195801 -240.09192383 52.31641602 -239.20556641 51.86767578 C-179.78663669 22.03779039 -112.04196959 5.53456462 -45.8125 1.1875 C-44.61036865 1.10137451 -43.4082373 1.01524902 -42.16967773 0.92651367 C-28.12305478 -0.0141401 -14.07284379 -0.01236217 0 0 Z " fill="#020202" transform="translate(489.8125,-0.1875)"/>
<path d="M0 0 C0.66 0.33 1.32 0.66 2 1 C-9.55 12.55 -21.1 24.1 -33 36 C-33.66 35.67 -34.32 35.34 -35 35 C-13.7195106 11.97979175 -13.7195106 11.97979175 -3.55859375 3.33984375 C-2.32496821 2.27935864 -1.15031749 1.15031749 0 0 Z " fill="#656565" transform="translate(136,127)"/>
</svg>
